<mxfile host="app.diagrams.net" modified="2023-10-21T08:51:50.979Z" agent="Mozilla/5.0 (Macintosh; Intel Mac OS X 10_15_7) AppleWebKit/537.36 (KHTML, like Gecko) Chrome/118.0.0.0 Safari/537.36" etag="4Gm9hWQ8uP0PPl5tAXNA" version="22.0.6" type="github">
  <diagram name="Page-1" id="sgzC3Tbx52lh_6FXgbBw">
    <mxGraphModel dx="965" dy="2004" grid="1" gridSize="10" guides="1" tooltips="1" connect="1" arrows="1" fold="1" page="1" pageScale="1" pageWidth="827" pageHeight="1169" math="0" shadow="0">
      <root>
        <mxCell id="0" />
        <mxCell id="1" parent="0" />
        <mxCell id="mq5mz9TE0Zo7DnpaqcWK-1" value="Admin" style="shape=umlActor;verticalLabelPosition=bottom;verticalAlign=top;html=1;outlineConnect=0;" vertex="1" parent="1">
          <mxGeometry x="180" y="600" width="30" height="60" as="geometry" />
        </mxCell>
        <mxCell id="mq5mz9TE0Zo7DnpaqcWK-2" value="Lender" style="shape=umlActor;verticalLabelPosition=bottom;verticalAlign=top;html=1;outlineConnect=0;" vertex="1" parent="1">
          <mxGeometry x="170" y="220" width="30" height="60" as="geometry" />
        </mxCell>
        <mxCell id="mq5mz9TE0Zo7DnpaqcWK-3" value="Borrower" style="shape=umlActor;verticalLabelPosition=bottom;verticalAlign=top;html=1;outlineConnect=0;" vertex="1" parent="1">
          <mxGeometry x="640" y="270" width="30" height="60" as="geometry" />
        </mxCell>
        <mxCell id="mq5mz9TE0Zo7DnpaqcWK-12" value="" style="rounded=0;whiteSpace=wrap;html=1;" vertex="1" parent="1">
          <mxGeometry x="280" y="-50" width="290" height="1010" as="geometry" />
        </mxCell>
        <mxCell id="mq5mz9TE0Zo7DnpaqcWK-13" value="Review Loan Application" style="ellipse;whiteSpace=wrap;html=1;" vertex="1" parent="1">
          <mxGeometry x="330" y="140" width="190" height="50" as="geometry" />
        </mxCell>
        <mxCell id="mq5mz9TE0Zo7DnpaqcWK-14" value="Approve Loan" style="ellipse;whiteSpace=wrap;html=1;" vertex="1" parent="1">
          <mxGeometry x="330" y="200" width="190" height="50" as="geometry" />
        </mxCell>
        <mxCell id="mq5mz9TE0Zo7DnpaqcWK-15" value="Decline Loan" style="ellipse;whiteSpace=wrap;html=1;" vertex="1" parent="1">
          <mxGeometry x="330" y="260" width="190" height="50" as="geometry" />
        </mxCell>
        <mxCell id="mq5mz9TE0Zo7DnpaqcWK-16" value="Disburse funds" style="ellipse;whiteSpace=wrap;html=1;" vertex="1" parent="1">
          <mxGeometry x="330" y="320" width="190" height="50" as="geometry" />
        </mxCell>
        <mxCell id="mq5mz9TE0Zo7DnpaqcWK-17" value="Repay Loan" style="ellipse;whiteSpace=wrap;html=1;" vertex="1" parent="1">
          <mxGeometry x="330" y="380" width="190" height="50" as="geometry" />
        </mxCell>
        <mxCell id="mq5mz9TE0Zo7DnpaqcWK-18" value="Modify Loan Terms" style="ellipse;whiteSpace=wrap;html=1;" vertex="1" parent="1">
          <mxGeometry x="330" y="440" width="190" height="50" as="geometry" />
        </mxCell>
        <mxCell id="mq5mz9TE0Zo7DnpaqcWK-19" value="Manage Borrower" style="ellipse;whiteSpace=wrap;html=1;" vertex="1" parent="1">
          <mxGeometry x="330" y="500" width="190" height="50" as="geometry" />
        </mxCell>
        <mxCell id="mq5mz9TE0Zo7DnpaqcWK-20" value="Blacklist Borrower" style="ellipse;whiteSpace=wrap;html=1;" vertex="1" parent="1">
          <mxGeometry x="330" y="560" width="190" height="50" as="geometry" />
        </mxCell>
        <mxCell id="mq5mz9TE0Zo7DnpaqcWK-21" value="View Audit Trail" style="ellipse;whiteSpace=wrap;html=1;" vertex="1" parent="1">
          <mxGeometry x="330" y="740" width="190" height="50" as="geometry" />
        </mxCell>
        <mxCell id="mq5mz9TE0Zo7DnpaqcWK-22" value="View Loan Status" style="ellipse;whiteSpace=wrap;html=1;" vertex="1" parent="1">
          <mxGeometry x="330" y="80" width="190" height="50" as="geometry" />
        </mxCell>
        <mxCell id="mq5mz9TE0Zo7DnpaqcWK-23" value="View Loan Details" style="ellipse;whiteSpace=wrap;html=1;" vertex="1" parent="1">
          <mxGeometry x="330" y="20" width="190" height="50" as="geometry" />
        </mxCell>
        <mxCell id="mq5mz9TE0Zo7DnpaqcWK-24" value="Query Borrower" style="ellipse;whiteSpace=wrap;html=1;" vertex="1" parent="1">
          <mxGeometry x="330" y="680" width="190" height="50" as="geometry" />
        </mxCell>
        <mxCell id="mq5mz9TE0Zo7DnpaqcWK-25" value="Apply for Loan" style="ellipse;whiteSpace=wrap;html=1;" vertex="1" parent="1">
          <mxGeometry x="330" y="-40" width="190" height="50" as="geometry" />
        </mxCell>
        <mxCell id="mq5mz9TE0Zo7DnpaqcWK-27" value="Withdraw Loan Request" style="ellipse;whiteSpace=wrap;html=1;" vertex="1" parent="1">
          <mxGeometry x="330" y="620" width="190" height="50" as="geometry" />
        </mxCell>
      </root>
    </mxGraphModel>
  </diagram>
</mxfile>
